# xmcd CD database file
#
# Track frame offsets:
#	150
#	21357
#	47404
#	63505
#	85582
#	101551
#	123080
#	142826
#	162915
#	183075
#	206243
#	221322
#	239768
#	263553
#
# Disc length: 3790 seconds
#
# Revision: 0
# Processed by: cddbd v1.5.2PL0 Copyright (c) Steve Scherf et al.
# Submitted via: CDex 1.70beta2
#
DISCID=b80ecc0e
DTITLE=Rick Bruner - Eight Hundred Miles
DYEAR=2007
DGENRE=Blues
TTITLE0=Blood Is Thicker
TTITLE1=Can't Take Me Home
TTITLE2=Worn Out Blue
TTITLE3=Sound Of Trains
TTITLE4=Way To Dawn
TTITLE5=Blue Tile Floor
TTITLE6=Wrong
TTITLE7=St. Jacob's Well
TTITLE8=Outrun The Devil
TTITLE9=Train Ain't Late
TTITLE10=No Place That Far
TTITLE11=Sweet Cherry
TTITLE12=This Blue
TTITLE13=Not As Sweet
EXTD=YEAR: 2007
EXTT0=
EXTT1=
EXTT2=
EXTT3=
EXTT4=
EXTT5=
EXTT6=
EXTT7=
EXTT8=
EXTT9=
EXTT10=
EXTT11=
EXTT12=
EXTT13=
PLAYORDER=
